<svg width="36" height="36" viewBox="0 0 36 36" fill="none" xmlns="http://www.w3.org/2000/svg">
<circle cx="18" cy="18" r="18" fill="white"/>
<path d="M11.2638 17.3318C10.8806 17.0985 10.9977 16.7107 11.1041 16.546L23.9023 3.04766C24.093 2.93154 24.1777 3.05464 24.1962 3.1307C23.522 6.55604 22.1312 13.4845 21.9609 13.7956C21.7906 14.1067 22.0319 14.2246 22.1738 14.2446C23.3092 14.4628 25.6331 14.9142 25.846 14.9743C26.0588 15.0345 26.0056 15.2988 25.9524 15.4234L12.2218 32.8801C11.4843 33.3292 11.2759 32.3936 11.317 32.0943C12.7962 28.1838 15.9101 20.7222 16.1068 20.3629C16.3034 20.0037 16.1178 19.7268 16.0003 19.6332C14.5812 18.9633 11.647 17.5652 11.2638 17.3318Z" fill="#0D4AD5"/>
</svg>
